<svg height="7.929441mm" viewBox="0 0 37.918846 7.929441" width="37.918846mm" xmlns="http://www.w3.org/2000/svg"><g fill="#464646" stroke="#000" stroke-width=".269987" transform="matrix(1.1279619 0 0 .88655476 -24.181217 -72.310041)"><path d="m24.408712 85.322261h-1.382332v-3.43423c0-.107994-.0648-.172791-.172792-.172791h-1.112345c-.129593 0-.18359.0648-.18359.172791v8.29399c0 .107995.054.172792.18359.172792h1.112345c.107995 0 .172792-.0648.172792-.172792v-3.43423h1.382332v3.43423c0 .107995.0648.172792.172791.172792h1.112345c.129594 0 .183591-.0648.183591-.172792v-8.29399c0-.107994-.054-.172791-.183591-.172791h-1.112345c-.107995 0-.172791.0648-.172791.172791z"/><path d="m31.951801 90.354813c.129594 0 .172792-.0648.151193-.183591l-1.792712-8.30479c-.0216-.107994-.08639-.151192-.183591-.151192h-1.501125c-.0972 0-.161992.0432-.183591.151192l-1.792712 8.30479c-.0324.118794.0216.183591.140393.183591h1.155543c.0972 0 .151193-.054.172792-.151193l.291585-1.576722h1.922305l.302385 1.576722c.0216.09719.0756.151193.172792.151193zm-1.889906-2.980653h-1.382332l.691166-3.769014z"/><path d="m36.284243 81.71524c-.118794 0-.172791.0648-.172791.172791v4.557375h-.0648l-1.641519-4.589773c-.0324-.09719-.09719-.140393-.19439-.140393h-1.069147c-.107995 0-.172792.0648-.172792.172791v8.29399c0 .107995.0648.172792.172792.172792h1.123144c.118794 0 .172792-.0648.172792-.172792v-4.578973h.054l1.652318 4.611372c.0324.09719.0972.140393.194391.140393h1.069147c.107995 0 .172791-.0648.172791-.172792v-8.29399c0-.107994-.0648-.172791-.172791-.172791z"/><path d="m38.663838 88.799689c0 1.01515.539974 1.555124 1.555124 1.555124h1.425529c1.00435 0 1.555123-.539974 1.555123-1.555124v-3.002251c0-.118794-.0648-.172792-.172791-.172792h-1.814311c-.118794 0-.172791.054-.172791.172792v1.079947c0 .107994.054.172791.172791.172791h.561573v1.447128c0 .291586-.151193.431979-.431979.431979h-.777562c-.280786 0-.431978-.140393-.431978-.431979v-4.924556c0-.280786.140393-.431979.431978-.431979h.777562c.280786 0 .431979.151193.431979.431979v.820759c0 .107995.054.172792.172791.172792h1.079947c.107994 0 .172791-.0648.172791-.172792v-1.123144c0-1.01515-.550773-1.555123-1.555123-1.555123h-1.425529c-1.01515 0-1.555124.539973-1.555124 1.555123z"/><path d="m49.374377 90.354813c.129593 0 .172791-.0648.151192-.183591l-1.792711-8.30479c-.0216-.107994-.0864-.151192-.183591-.151192h-1.501126c-.09719 0-.161992.0432-.183591.151192l-1.792711 8.30479c-.0324.118794.0216.183591.140393.183591h1.155543c.09719 0 .151192-.054.172791-.151193l.291586-1.576722h1.922305l.302385 1.576722c.0216.09719.0756.151193.172791.151193zm-1.889907-2.980653h-1.382332l.691166-3.769014z"/><path d="m54.935427 83.270363c0-1.01515-.539973-1.555123-1.555123-1.555123h-2.710666c-.107995 0-.172792.0648-.172792.172791v8.29399c0 .107995.0648.172792.172792.172792h1.123144c.107995 0 .172792-.0648.172792-.172792v-2.721465h.745163l.723564 2.743064c.0216.09719.0756.151193.183591.151193h1.123144c.118795 0 .183591-.0648.151193-.194391l-.745163-2.82946c.518374-.226789.788361-.701965.788361-1.425529zm-2.969853 2.764663v-2.894257h1.069147c.280786 0 .431978.151193.431978.431979v2.0303c0 .280786-.151192.431978-.431978.431978z"/></g></svg>