<svg xmlns="http://www.w3.org/2000/svg" width="143.315" viewBox="0 0 37.918846 7.929441" height="29.97"><path transform="matrix(1.12796 0 0 .88655 -24.181 -72.31)" d="M24.409 85.322h-1.383v-3.434c0-.108-.064-.173-.172-.173H21.74c-.13 0-.183.065-.183.173v8.294c0 .108.054.173.183.173h1.113c.108 0 .172-.065.172-.173v-3.434h1.383v3.434c0 .108.065.173.173.173h1.112c.13 0 .183-.065.183-.173v-8.294c0-.108-.054-.173-.183-.173h-1.112c-.108 0-.173.065-.173.173zm7.543 5.033c.13 0 .173-.065.151-.184l-1.793-8.305c-.021-.108-.086-.15-.183-.15h-1.501c-.098 0-.162.042-.184.15l-1.793 8.305c-.032.119.022.184.14.184h1.156c.097 0 .151-.054.173-.151l.292-1.577h1.922l.302 1.577c.022.097.076.15.173.15zm-1.89-2.98H28.68l.69-3.77zm6.222-5.66c-.119 0-.173.065-.173.173v4.557h-.064l-1.642-4.59c-.032-.097-.097-.14-.194-.14h-1.07c-.107 0-.172.065-.172.173v8.294c0 .108.065.173.173.173h1.123c.119 0 .173-.065.173-.173v-4.579h.054l1.652 4.611c.032.098.097.14.194.14h1.07c.107 0 .172-.064.172-.172v-8.294c0-.108-.065-.173-.173-.173zm2.38 7.085c0 1.015.54 1.555 1.555 1.555h1.425c1.005 0 1.556-.54 1.556-1.555v-3.003c0-.118-.065-.172-.173-.172h-1.814c-.12 0-.173.054-.173.172v1.08c0 .108.054.173.173.173h.561v1.447c0 .292-.151.432-.432.432h-.777c-.281 0-.432-.14-.432-.432v-4.924c0-.281.14-.432.432-.432h.777c.28 0 .432.151.432.432v.82c0 .109.054.173.173.173h1.08c.108 0 .173-.065.173-.172V83.27c0-1.015-.551-1.555-1.556-1.555H40.22c-1.015 0-1.555.54-1.555 1.555zm10.71 1.555c.13 0 .173-.065.152-.184l-1.793-8.305c-.022-.108-.087-.15-.184-.15h-1.5c-.098 0-.163.042-.184.15l-1.793 8.305c-.033.119.021.184.14.184h1.156c.097 0 .151-.054.173-.151l.291-1.577h1.922l.303 1.577c.021.097.075.15.173.15zm-1.89-2.98h-1.382l.691-3.77zm7.451-4.105c0-1.015-.54-1.555-1.555-1.555h-2.71c-.108 0-.173.065-.173.173v8.294c0 .108.065.173.173.173h1.123c.108 0 .173-.065.173-.173v-2.721h.745l.723 2.743c.022.097.076.15.184.15h1.123c.119 0 .184-.064.151-.194l-.745-2.829c.518-.227.788-.702.788-1.426zm-2.97 2.765v-2.894h1.07c.28 0 .432.151.432.432v2.03c0 .28-.151.432-.432.432z" stroke-width=".27" stroke="#fff" fill="#3381ee"/></svg>